<?xml version="1.0" standalone="no"?>
<!DOCTYPE svg PUBLIC "-//W3C//DTD SVG 1.1//EN" "http://www.w3.org/Graphics/SVG/1.1/DTD/svg11.dtd"><svg t="1669040209301"
  class="icon" viewBox="0 0 1024 1024" version="1.1" xmlns="http://www.w3.org/2000/svg" p-id="1825"
  xmlns:xlink="http://www.w3.org/1999/xlink" width="16" height="16">
  <!-- <path
    d="M725.306 96.044c-83.56 0-159.122 34.342-213.322 89.654-54.202-55.312-129.746-89.654-213.32-89.654C133.716 96.044 0.018 229.758 0.018 394.69c0 341.3 511.966 618.604 511.966 618.604s511.998-277.302 511.998-618.604c0-164.93-133.714-298.646-298.676-298.646z"
    fill="#CCD1D9" p-id="1826"></path>
  <path -->
  d="M725.306 53.36c-83.56 0-159.122 34.342-213.322 89.684-54.2-55.342-129.744-89.684-213.32-89.684C133.716 53.36 0.018
  187.074 0.018 352.038c0 341.27 511.966 618.634 511.966 618.634s511.998-277.366
  511.998-618.634c0-164.964-133.714-298.678-298.676-298.678z"
  fill="#E6E9ED" p-id="1827"></path>
  <!-- <path -->
  d="M298.664 53.36c-150.448 0-274.898 111.278-295.616 255.99H1020.92C1000.234 164.636 875.77 53.36 725.306 53.36c-83.56
  0-159.122 34.342-213.322 89.684-54.2-55.342-129.744-89.684-213.32-89.684z"
  fill="#ED5564" p-id="1828"></path>
  <!-- <path -->
  d="M320.006 10.706c-11.782 0-21.342 9.56-21.342 21.342v63.998c0 11.782 9.546 21.312 21.342 21.312 11.782 0
  21.328-9.532 21.328-21.312v-64c0-11.78-9.546-21.34-21.328-21.34zM192.01 10.706c-11.78 0-21.342 9.56-21.342
  21.342v63.998c0 11.782 9.546 21.312 21.342 21.312 11.782 0 21.328-9.532
  21.328-21.312v-64c0-11.78-9.546-21.34-21.328-21.34zM831.99 10.706c-11.782 0-21.344 9.56-21.344 21.342v63.998c0 11.782
  9.532 21.312 21.344 21.312a21.3 21.3 0 0 0 21.312-21.312v-64c0-11.78-9.53-21.34-21.312-21.34zM703.994 10.706c-11.782
  0-21.344 9.56-21.344 21.342v63.998c0 11.782 9.532 21.312 21.344 21.312a21.3 21.3 0 0 0
  21.312-21.312v-64c0-11.78-9.53-21.34-21.312-21.34z"
  fill="#434A54" p-id="1829"></path>
  <path
    d="M676.4 614.246a21.43 21.43 0 0 0-15.094-6.25v-191.96c0-5.468-2.062-10.938-6.25-15.094-8.31-8.344-21.81-8.344-30.154 0-0.904 0.906-1.654 1.876-2.374 2.876l-0.032-0.032-149.308 213.336h0.016c-5.844 8.312-5.062 19.876 2.376 27.312a21.152 21.152 0 0 0 15.078 6.25h127.998v63.996c0 5.438 2.094 10.876 6.248 15.062 8.344 8.312 21.844 8.312 30.154 0 4.188-4.124 6.25-9.624 6.25-15.062v-63.996c5.468 0 10.938-2.062 15.094-6.25 8.342-8.312 8.342-21.876-0.002-30.188z m-144.776-6.25l87.03-124.308v124.308h-87.03zM399.082 400.942c-8.328-8.344-21.842-8.344-30.17 0l-42.654 42.654h-0.016c-8.328 8.344-8.328 21.844 0 30.188 8.342 8.31 21.842 8.31 30.17 0l6.25-6.25V714.68a21.26 21.26 0 0 0 6.25 15.062c8.328 8.312 21.844 8.312 30.17 0a21.156 21.156 0 0 0 6.25-15.062V416.036c0-5.47-2.078-10.938-6.25-15.094z"
    fill="#ED5564" p-id="1830"></path>
</svg>