<?xml version="1.0" standalone="no"?>
<!DOCTYPE svg PUBLIC "-//W3C//DTD SVG 1.1//EN" "http://www.w3.org/Graphics/SVG/1.1/DTD/svg11.dtd"><svg t="1669040185557"
  class="icon" viewBox="0 0 1024 1024" version="1.1" xmlns="http://www.w3.org/2000/svg" p-id="1523"
  xmlns:xlink="http://www.w3.org/1999/xlink" width="16" height="16">
  <path
    d="M356.224 179.328l311.488 0 0 17.344c0 48.704 39.744 88.064 88.704 88.064l18.56 0c49.024 0 88.704-39.36 88.704-88.064L863.68 179.328l91.84 0c37.888 0 68.48 30.656 68.48 68.096l0 676.48c0 37.632-30.656 68.032-68.48 68.032L68.544 991.936C30.656 992 0 961.536 0 923.968L0 247.424C0 209.92 30.656 179.328 68.544 179.328l91.776 0 0 17.344c0 48.704 39.68 88.064 88.704 88.064l18.56 0c48.96 0 88.704-39.36 88.704-88.064L356.288 179.328zM934.784 920.064 934.784 333.76 89.216 333.76l0 586.304L934.784 920.064z"
    p-id="1524"></path>
  <path d="M765.76 206.016m-12.992 0a0.203 0.203 0 1 0 25.984 0 0.203 0.203 0 1 0-25.984 0Z" p-id="1525"></path>
  <path
    d="M765.76 179.328c-14.848 0-26.88 12.032-26.88 26.688 0 14.784 12.032 26.688 26.88 26.688 14.784 0 26.88-11.904 26.88-26.688C792.64 191.296 780.544 179.328 765.76 179.328zM710.016 87.232c0-30.464 25.024-55.232 55.744-55.232 15.36 0 29.248 6.144 39.296 16.192 10.176 9.984 16.384 23.872 16.384 39.04l0 111.552c0 30.592-24.96 55.36-55.68 55.36-15.36 0-29.248-6.272-39.36-16.256s-16.384-23.808-16.384-39.104L710.016 87.232z"
    p-id="1526"></path>
  <g transform="translate(0,50)">
    <path
      d="M676.4 614.246a21.43 21.43 0 0 0-15.094-6.25v-191.96c0-5.468-2.062-10.938-6.25-15.094-8.31-8.344-21.81-8.344-30.154 0-0.904 0.906-1.654 1.876-2.374 2.876l-0.032-0.032-149.308 213.336h0.016c-5.844 8.312-5.062 19.876 2.376 27.312a21.152 21.152 0 0 0 15.078 6.25h127.998v63.996c0 5.438 2.094 10.876 6.248 15.062 8.344 8.312 21.844 8.312 30.154 0 4.188-4.124 6.25-9.624 6.25-15.062v-63.996c5.468 0 10.938-2.062 15.094-6.25 8.342-8.312 8.342-21.876-0.002-30.188z m-144.776-6.25l87.03-124.308v124.308h-87.03zM399.082 400.942c-8.328-8.344-21.842-8.344-30.17 0l-42.654 42.654h-0.016c-8.328 8.344-8.328 21.844 0 30.188 8.342 8.31 21.842 8.31 30.17 0l6.25-6.25V714.68a21.26 21.26 0 0 0 6.25 15.062c8.328 8.312 21.844 8.312 30.17 0a21.156 21.156 0 0 0 6.25-15.062V416.036c0-5.47-2.078-10.938-6.25-15.094z"
      fill="#000" p-id="1830"></path>
  </g>
  <path d="M258.24 206.016m-12.928 0a0.202 0.202 0 1 0 25.856 0 0.202 0.202 0 1 0-25.856 0Z" p-id="1528"></path>
  <path
    d="M313.984 198.784c0 30.592-24.96 55.36-55.744 55.36-15.424 0-29.248-6.272-39.424-16.256C208.768 227.968 202.624 214.144 202.624 198.784L202.624 87.232c0-30.464 24.896-55.232 55.68-55.232 15.424 0 29.312 6.144 39.36 16.192 10.112 9.984 16.32 23.872 16.32 39.04L313.984 198.784zM285.12 206.016c0-14.656-12.032-26.688-26.88-26.688-14.784 0-26.816 12.032-26.816 26.688 0 14.784 12.032 26.688 26.816 26.688C273.088 232.704 285.12 220.8 285.12 206.016z"
    p-id="1529"></path>
</svg>