<?xml version="1.0" standalone="no"?>
<!DOCTYPE svg PUBLIC "-//W3C//DTD SVG 1.1//EN" "http://www.w3.org/Graphics/SVG/1.1/DTD/svg11.dtd"><svg t="1669043397722"
  class="icon" viewBox="0 0 1024 1024" version="1.1" xmlns="http://www.w3.org/2000/svg" p-id="1553"
  xmlns:xlink="http://www.w3.org/1999/xlink" width="16" height="16">
  <path
    d="M490.666667 0C776.533333 0 981.333333 171.093333 981.333333 405.333333c0 36.053333-4.864 70.570667-14.08 103.253334A270.933333 270.933333 0 0 1 1024 675.541333a271.274667 271.274667 0 0 1-63.658667 175.658667l-7.296 8.277333 14.677334 90.24c8.448 52.224-46.08 90.794667-91.861334 67.498667l-4.864-2.730667-93.269333-57.386666-0.469333 0.128a434.773333 434.773333 0 0 1-78.208 9.6l-16.384 0.298666c-142.762667 0-258.901333-63.658667-311.594667-166.954666-7.722667-1.322667-15.36-2.858667-22.912-4.522667l-9.941333-2.389333-155.946667 93.610666c-45.226667 27.136-101.034667-8.874667-96.768-59.861333l0.682667-5.546667 25.045333-150.229333-1.322667-1.28C42.112 601.642667 3.413333 513.749333 0.256 418.346667L0 405.333333C0 171.093333 204.8 0 490.666667 0z m402.517333 646.528l-6.528 7.552c-76.288 85.248-194.048 141.610667-335.957333 154.026667 34.773333 19.669333 79.573333 31.018667 131.968 31.018666 31.658667 0 60.8-4.138667 86.912-12.032a64 64 0 0 1 46.08 3.498667l5.034666 2.688 0.554667-5.802667a64 64 0 0 1 16.981333-34.645333l4.821334-4.608c34.474667-29.312 52.949333-68.693333 52.949333-112.64 0-9.941333-0.938667-19.626667-2.816-29.013333zM490.666667 128C270.933333 128 128 247.424 128 405.333333c0 75.008 32.597333 142.848 92.970667 192.853334 17.493333 14.592 26.026667 37.333333 22.229333 59.818666l-7.978667 47.786667 60.330667-36.181333a64 64 0 0 1 44.544-8.021334l6.485333 1.536a468.906667 468.906667 0 0 0 74.026667 15.274667c2.005333 0 3.925333 0.256 5.845333 0.597333 20.608 2.474667 42.069333 3.669333 64.213334 3.669334 219.733333 0 362.666667-119.424 362.666666-277.333334S710.4 128 490.666667 128z"
    fill="currentColor"></path>
</svg>