<?xml version="1.0" standalone="no"?>
<!DOCTYPE svg PUBLIC "-//W3C//DTD SVG 20010904//EN" "http://www.w3.org/TR/2001/REC-SVG-20010904/DTD/svg10.dtd">
<svg version="1.0" xmlns="http://www.w3.org/2000/svg" width="512.000000pt" height="512.000000pt"
  viewBox="0 0 512.000000 512.000000" preserveAspectRatio="xMidYMid meet">

  <g transform="translate(0.000000,512.000000) scale(0.100000,-0.100000)" fill="#000000" stroke="none">
    <path d="M2326 4236 c-77 -29 -135 -111 -136 -192 0 -65 49 -151 133 -230 90
    -86 217 -174 250 -174 32 0 207 131 276 206 125 136 134 258 27 352 -79 69
    -187 67 -268 -6 -35 -32 -41 -34 -49 -19 -16 28 -94 67 -145 72 -30 3 -64 0
    -88 -9z" />
    <path d="M3891 3450 c-72 -26 -138 -79 -183 -146 -48 -71 -62 -121 -62 -215 1
    -132 75 -255 191 -317 196 -104 426 -26 521 176 23 49 27 70 27 152 0 87 -3
    101 -32 161 -39 79 -102 141 -181 177 -78 36 -203 41 -281 12z" />
    <path d="M2719 2780 c-90 -27 -144 -120 -120 -207 20 -70 14 -71 186 12 87 41
    161 78 164 80 9 10 -74 88 -114 106 -42 20 -74 22 -116 9z" />
    <path d="M3391 2729 c-38 -7 -1443 -677 -1464 -698 -4 -5 154 -115 352 -246
    199 -131 361 -239 361 -241 0 -4 -253 118 -595 287 l-250 124 -75 0 -75 0
    -683 -305 c-759 -339 -747 -332 -778 -437 -42 -145 64 -283 217 -283 46 0 121
    31 682 281 346 154 635 278 641 276 6 -3 222 -106 481 -230 259 -123 486 -230
    505 -236 64 -21 163 -31 228 -21 71 10 1213 289 1224 299 4 4 -3 22 -16 41
    -12 19 -31 49 -42 65 -10 17 98 -89 241 -234 263 -267 304 -301 370 -301 74 0
    158 68 171 138 14 70 121 757 119 760 -1 1 -26 -9 -56 -23 -75 -34 -151 -48
    -235 -43 l-71 5 -12 -81 c-7 -45 -17 -110 -23 -145 l-10 -63 -109 108 -109
    109 -1 55 c0 30 -6 73 -13 95 -12 38 -13 39 -24 18 -22 -40 -92 -78 -507 -274
    l-410 -194 -85 0 c-75 0 -91 3 -131 27 -90 53 -141 140 -141 240 0 53 15 100
    128 394 71 184 130 330 132 325 2 -5 -27 -160 -63 -344 -73 -368 -74 -382 -19
    -446 32 -38 102 -65 151 -58 51 7 801 361 835 394 81 77 53 237 -48 279 -73
    30 -108 21 -344 -90 -168 -80 -220 -100 -219 -88 0 10 13 80 29 157 l28 140 1
    -72 c1 -40 3 -73 6 -73 2 0 29 12 60 27 50 25 57 32 76 83 30 78 24 202 -13
    282 -52 112 -157 195 -277 218 -61 11 -78 11 -140 -1z" />
    <path d="M566 2687 c-65 -37 -99 -88 -104 -156 -8 -114 -12 -108 348 -430
    l225 -201 94 0 94 0 212 95 c116 52 220 95 230 95 52 0 -6 10 -133 24 l-142
    15 -226 203 c-125 112 -261 234 -303 271 -42 37 -93 77 -113 87 -52 28 -131
    26 -182 -3z" />
    <path d="M4672 2560 c-110 -23 -221 -113 -270 -218 -36 -78 -38 -211 -4 -287
      51 -112 121 -178 229 -216 46 -16 74 -20 139 -16 145 8 254 82 317 215 29 60
      32 77 32 157 0 82 -3 97 -33 157 -76 154 -249 242 -410 208z" />
    <path d="M154 1749 c-91 -21 -162 -121 -151 -214 6 -54 50 -130 89 -153 27
      -16 28 -16 65 20 46 44 69 55 414 208 151 67 285 128 299 136 21 11 -25 13
      -325 13 -192 -1 -368 -5 -391 -10z" />
  </g>
</svg>