<svg version="1.0" xmlns="http://www.w3.org/2000/svg" width="512.000000pt" height="512.000000pt"
  viewBox="0 0 512.000000 512.000000" preserveAspectRatio="xMidYMid meet">

  <g transform="translate(0.000000,512.000000) scale(0.100000,-0.100000)" fill="#000000" stroke="none">
    <path d="M0 3660 l0 -1460 1133 0 1132 0 369 1098 c203 603 424 1260 492 1460
l123 362 -1625 0 -1624 0 0 -1460z m2825 1143 c-4 -10 -177 -524 -385 -1143
-208 -619 -381 -1133 -385 -1142 -7 -17 -58 -18 -881 -18 l-874 0 0 1160 0
1160 1266 0 c1202 0 1266 -1 1259 -17z" />
    <path d="M1020 4407 c-74 -11 -136 -21 -137 -22 -2 -1 198 -1363 212 -1442 l6
-33 259 0 260 0 5 23 c8 37 225 1420 225 1437 0 13 -27 20 -142 38 -79 11
-145 17 -148 12 -3 -4 -48 -279 -100 -611 -69 -441 -97 -595 -103 -573 -7 26
-177 1164 -177 1185 0 11 7 11 -160 -14z" />
    <path d="M2476 1823 c-203 -604 -424 -1261 -492 -1460 l-123 -363 1630 0 1629
0 0 1460 0 1460 -1138 0 -1137 0 -369 -1097z m2344 -363 l0 -1160 -1271 0
c-1207 0 -1271 1 -1264 18 4 9 177 526 386 1147 209 622 381 1136 384 1143 3
9 190 12 885 12 l880 0 0 -1160z" />
    <path d="M3460 1745 l0 -455 250 0 250 0 0 -155 0 -155 -250 0 -250 0 0 -150
0 -150 400 0 400 0 0 455 0 455 -250 0 -250 0 0 155 0 155 250 0 250 0 0 150
0 150 -400 0 -400 0 0 -455z" />
  </g>
</svg>