<svg t="1664043175400" class="icon" viewBox="0 0 1024 1024" version="1.1" xmlns="http://www.w3.org/2000/svg" p-id="1389"
  width="100%" height="100%">
  <path
    d="M896 819.2h-819.2C34.4576 819.2 0 784.7424 0 742.4v-409.6C0 290.4576 34.4576 256 76.8 256h819.2c42.3424 0 76.8 34.4576 76.8 76.8v409.6c0 42.3424-34.4576 76.8-76.8 76.8zM76.8 307.2a25.6 25.6 0 0 0-25.6 25.6v409.6a25.6 25.6 0 0 0 25.6 25.6h819.2a25.6 25.6 0 0 0 25.6-25.6v-409.6a25.6 25.6 0 0 0-25.6-25.6h-819.2z"
    fill="" p-id="1390"></path>
  <path
    d="M179.2 409.6h-51.2a25.6 25.6 0 0 1 0-51.2h51.2a25.6 25.6 0 0 1 0 51.2zM844.8 409.6h-51.2a25.6 25.6 0 0 1 0-51.2h51.2a25.6 25.6 0 0 1 0 51.2zM230.4 512h-102.4a25.6 25.6 0 0 1 0-51.2h102.4a25.6 25.6 0 0 1 0 51.2zM179.2 716.8h-51.2a25.6 25.6 0 0 1 0-51.2h51.2a25.6 25.6 0 0 1 0 51.2zM588.8 716.8h-307.2a25.6 25.6 0 0 1 0-51.2h307.2a25.6 25.6 0 0 1 0 51.2zM742.4 716.8h-51.2a25.6 25.6 0 0 1 0-51.2h51.2a25.6 25.6 0 0 1 0 51.2zM844.8 614.4h-153.6a25.6 25.6 0 0 1 0-51.2H819.2V486.4a25.6 25.6 0 0 1 51.2 0v102.4a25.6 25.6 0 0 1-25.6 25.6zM281.6 614.4h-153.6a25.6 25.6 0 0 1 0-51.2h153.6a25.6 25.6 0 0 1 0 51.2zM307.2 384a25.6 25.6 0 1 1-51.2 0 25.6 25.6 0 0 1 51.2 0zM409.6 384a25.6 25.6 0 1 1-51.2 0 25.6 25.6 0 0 1 51.2 0zM512 384a25.6 25.6 0 1 1-51.2 0 25.6 25.6 0 0 1 51.2 0zM614.4 384a25.6 25.6 0 1 1-51.2 0 25.6 25.6 0 0 1 51.2 0zM716.8 384a25.6 25.6 0 1 1-51.2 0 25.6 25.6 0 0 1 51.2 0zM358.4 486.4a25.6 25.6 0 1 1-51.2 0 25.6 25.6 0 0 1 51.2 0zM460.8 486.4a25.6 25.6 0 1 1-51.2 0 25.6 25.6 0 0 1 51.2 0zM563.2 486.4a25.6 25.6 0 1 1-51.2 0 25.6 25.6 0 0 1 51.2 0zM665.6 486.4a25.6 25.6 0 1 1-51.2 0 25.6 25.6 0 0 1 51.2 0z"
    fill="" p-id="1391"></path>
  <path
    d="M768 486.4a25.6 25.6 0 1 1-51.2 0 25.6 25.6 0 0 1 51.2 0zM409.6 588.8a25.6 25.6 0 1 1-51.2 0 25.6 25.6 0 0 1 51.2 0zM512 588.8a25.6 25.6 0 1 1-51.2 0 25.6 25.6 0 0 1 51.2 0zM614.4 588.8a25.6 25.6 0 1 1-51.2 0 25.6 25.6 0 0 1 51.2 0z"
    fill="" p-id="1392"></path>
</svg>